<?xml version="1.0" encoding="UTF-8"?>
<svg xmlns="http://www.w3.org/2000/svg" 
     xmlns:xlink="http://www.w3.org/1999/xlink" 
     id="interactive-diagram" 
     viewBox="0 0 840 290" 
     width="100%" 
     height="100%" 
     fill-opacity="1" 
     color-rendering="auto" 
     color-interpolation="auto" 
     text-rendering="auto" 
     stroke="black" 
     stroke-linecap="square" 
     stroke-miterlimit="10" 
     shape-rendering="auto" 
     stroke-opacity="1" 
     fill="black" 
     stroke-dasharray="none" 
     font-weight="normal" 
     stroke-width="1" 
     font-family="'Dialog'" 
     font-style="normal" 
     stroke-linejoin="miter" 
     font-size="12px" 
     stroke-dashoffset="0" 
     image-rendering="auto">
     <!--Generated by ySVG 2.6-->
  <defs id="genericDefs"/>
  <g>
    <defs id="defs1">
      <!-- Google Fonts & Typography Styling -->
      <style type="text/css">
      <![CDATA[
        @import url('https://fonts.googleapis.com/css2?family=Dosis:wght@400;600;700&family=Playfair+Display:wght@400;700&display=swap');

        text, tspan, div, p, span, foreignObject * {
          font-family: 'Dosis', 'Playfair Display', sans-serif !important;
        }

        svg {
          cursor: grab;
        }
        svg:active {
          cursor: grabbing;
        }
      ]]>
      </style>

      <!-- External Pan-Zoom Library Engine -->
      <script xlink:href="https://cdn.jsdelivr.net/npm/svg-pan-zoom@3.6.1/dist/svg-pan-zoom.min.js"/>

      <!-- Initialize Pan-Zoom Behavior -->
      <script type="text/javascript">
      <![CDATA[
        var panZoomInstance;

        window.addEventListener("load", function() {
          panZoomInstance = svgPanZoom('#interactive-diagram', {
            zoomEnabled: true,
            controlIconsEnabled: true,
            fit: false,
            center: false,
            minZoom: 0.2,
            maxZoom: 10,
            zoomScaleSensitivity: 0.2
          });

          // 1. Set zoom to 82%
          var targetZoom = 0.90;
          panZoomInstance.zoom(targetZoom);

          // 2. Target focal point inside yEd canvas
          var targetX = 600.0;
          var targetY = 900.0;

          // 3. Get iframe container dimensions to calculate center offset
          var sizes = panZoomInstance.getSizes();
          var containerWidth = sizes.width;
          var containerHeight = sizes.height;

          // 4. Calculate pan offset so (targetX, targetY) rests at the exact viewport center
          var panX = (containerWidth / 2) - (targetX * targetZoom);
          var panY = (containerHeight / 2) - (targetY * targetZoom);

          panZoomInstance.pan({ x: panX, y: panY });
        });

        /* Directional Pan Function for Mobile UI Buttons */
        function moveDiagram(direction) {
          if (!panZoomInstance) return;
          var step = 80;
          if (direction === 'up') panZoomInstance.panBy({x: 0, y: step});
          if (direction === 'down') panZoomInstance.panBy({x: 0, y: -step});
          if (direction === 'left') panZoomInstance.panBy({x: step, y: 0});
          if (direction === 'right') panZoomInstance.panBy({x: -step, y: 0});
        }
      ]]>
      </script>

      <clipPath clipPathUnits="userSpaceOnUse" id="clipPath1">
        <path d="M0 0 L1476 0 L1476 1370 L0 1370 L0 0 Z"/>
      </clipPath>
      <clipPath clipPathUnits="userSpaceOnUse" id="clipPath2">
        <path d="M40 -15 L1516 -15 L1516 1355 L40 1355 L40 -15 Z"/>
      </clipPath>
      <clipPath clipPathUnits="userSpaceOnUse" id="clipPath3">
        <path d="M0 0 L52 0 L52 32 L0 32 L0 0 Z"/>
      </clipPath>
      <clipPath clipPathUnits="userSpaceOnUse" id="clipPath4">
        <path d="M0 0 L107 0 L107 32 L0 32 L0 0 Z"/>
      </clipPath>
      <clipPath clipPathUnits="userSpaceOnUse" id="clipPath5">
        <path d="M0 0 L80 0 L80 48 L0 48 L0 0 Z"/>
      </clipPath>
      <clipPath clipPathUnits="userSpaceOnUse" id="clipPath6">
        <path d="M0 0 L111 0 L111 32 L0 32 L0 0 Z"/>
      </clipPath>
      <clipPath clipPathUnits="userSpaceOnUse" id="clipPath7">
        <path d="M0 0 L90 0 L90 48 L0 48 L0 0 Z"/>
      </clipPath>
      <clipPath clipPathUnits="userSpaceOnUse" id="clipPath8">
        <path d="M0 0 L79 0 L79 32 L0 32 L0 0 Z"/>
      </clipPath>
      <clipPath clipPathUnits="userSpaceOnUse" id="clipPath9">
        <path d="M0 0 L80 0 L80 32 L0 32 L0 0 Z"/>
      </clipPath>
      <clipPath clipPathUnits="userSpaceOnUse" id="clipPath10">
        <path d="M0 0 L82 0 L82 48 L0 48 L0 0 Z"/>
      </clipPath>
      <clipPath clipPathUnits="userSpaceOnUse" id="clipPath11">
        <path d="M0 0 L92 0 L92 48 L0 48 L0 0 Z"/>
      </clipPath>
      <clipPath clipPathUnits="userSpaceOnUse" id="clipPath12">
        <path d="M0 0 L100 0 L100 32 L0 32 L0 0 Z"/>
      </clipPath>
      <clipPath clipPathUnits="userSpaceOnUse" id="clipPath13">
        <path d="M0 0 L67 0 L67 16 L0 16 L0 0 Z"/>
      </clipPath>
      <clipPath clipPathUnits="userSpaceOnUse" id="clipPath14">
        <path d="M0 0 L59 0 L59 32 L0 32 L0 0 Z"/>
      </clipPath>
      <clipPath clipPathUnits="userSpaceOnUse" id="clipPath15">
        <path d="M0 0 L66 0 L66 48 L0 48 L0 0 Z"/>
      </clipPath>
      <clipPath clipPathUnits="userSpaceOnUse" id="clipPath16">
        <path d="M0 0 L82 0 L82 32 L0 32 L0 0 Z"/>
      </clipPath>
      <clipPath clipPathUnits="userSpaceOnUse" id="clipPath17">
        <path d="M0 0 L73 0 L73 32 L0 32 L0 0 Z"/>
      </clipPath>
    </defs>
    <g fill="white" text-rendering="geometricPrecision" shape-rendering="geometricPrecision" transform="translate(-40,15)" stroke="white">
      <rect x="40" width="1476" height="1370" y="-15" clip-path="url(#clipPath2)" stroke="none"/>
    </g>
    <g id="y.node.0">
      <a target="_blank" xlink:type="simple" xlink:href="https://a-lighthouse.org/love" xlink:show="new">
        <g fill="rgb(248,235,232)" text-rendering="geometricPrecision" shape-rendering="geometricPrecision" transform="matrix(1,0,0,1,-40,15)" stroke="rgb(248,235,232)">
          <rect x="709.5" y="900" width="137" rx="4" ry="4" height="80" stroke="none"/>
        </g>
        <g stroke-linecap="butt" transform="matrix(1,0,0,1,-40,15)" fill="rgb(201,68,39)" text-rendering="geometricPrecision" shape-rendering="geometricPrecision" stroke="rgb(201,68,39)" stroke-miterlimit="1.45">
          <rect x="709.5" y="900" fill="none" width="137" rx="4" ry="4" height="80"/>
        </g>
        <g>
          <g stroke-linecap="butt" font-size="20px" transform="matrix(1,0,0,1,-40,15)" fill="rgb(201,68,39)" text-rendering="geometricPrecision" font-family="'Dosis SemiBold'" shape-rendering="geometricPrecision" stroke="rgb(201,68,39)" stroke-miterlimit="1.45">
            <text x="756.77" xml:space="preserve" y="947.9" stroke="none">LOVE</text>
          </g>
        </g>
      </a>
    </g>
    <g id="y.node.1">
      <a target="_blank" xlink:type="simple" xlink:href="https://a-lighthouse.org/existence" xlink:show="new">
        <g fill="rgb(251,246,245)" text-rendering="geometricPrecision" shape-rendering="geometricPrecision" transform="matrix(1,0,0,1,-40,15)" stroke="rgb(251,246,245)">
          <rect x="1177" y="1080" width="137" rx="4" ry="4" height="80" stroke="none"/>
        </g>
        <g stroke-linecap="butt" transform="matrix(1,0,0,1,-40,15)" fill="rgb(201,68,39)" text-rendering="geometricPrecision" shape-rendering="geometricPrecision" stroke="rgb(201,68,39)" stroke-miterlimit="1.45">
          <rect x="1177" y="1080" fill="none" width="137" rx="4" ry="4" height="80"/>
        </g>
        <g>
          <g stroke-linecap="butt" transform="matrix(1,0,0,1,-40,15) translate(1219,1104)" fill="rgb(201,68,39)" text-rendering="geometricPrecision" font-family="'Dosis'" shape-rendering="geometricPrecision" stroke="rgb(201,68,39)" font-weight="bold" stroke-miterlimit="1.45">
            <text x="18" xml:space="preserve" y="13" clip-path="url(#clipPath3)" stroke="none">BE </text>
            <text x="33" xml:space="preserve" y="13" clip-path="url(#clipPath3)" font-weight="normal" stroke="none"> </text>
            <text x="0" xml:space="preserve" y="29" clip-path="url(#clipPath3)" font-weight="normal" stroke="none">EXISTENCE</text>
          </g>
        </g>
      </a>
    </g>
    <g id="y.node.2">
      <a target="_blank" xlink:type="simple" xlink:href="https://a-lighthouse.org/dimensional-reality" xlink:show="new">
        <g fill="rgb(251,246,245)" text-rendering="geometricPrecision" shape-rendering="geometricPrecision" transform="matrix(1,0,0,1,-40,15)" stroke="rgb(251,246,245)">
          <rect x="709.5" y="1080" width="137" rx="4" ry="4" height="80" stroke="none"/>
        </g>
        <g stroke-linecap="butt" transform="matrix(1,0,0,1,-40,15)" fill="rgb(201,68,39)" text-rendering="geometricPrecision" shape-rendering="geometricPrecision" stroke="rgb(201,68,39)" stroke-miterlimit="1.45">
          <rect x="709.5" y="1080" fill="none" width="137" rx="4" ry="4" height="80"/>
        </g>
        <g>
          <g stroke-linecap="butt" transform="matrix(1,0,0,1,-40,15) translate(724,1104)" fill="rgb(201,68,39)" text-rendering="geometricPrecision" font-family="'Dosis'" shape-rendering="geometricPrecision" stroke="rgb(201,68,39)" font-weight="bold" stroke-miterlimit="1.45">
            <text x="38" xml:space="preserve" y="13" clip-path="url(#clipPath4)" stroke="none">HOME </text>
            <text x="68" xml:space="preserve" y="13" clip-path="url(#clipPath4)" font-weight="normal" stroke="none"> </text>
            <text x="0" xml:space="preserve" y="29" clip-path="url(#clipPath4)" font-weight="normal" stroke="none">DIMENSIONAL REALITY</text>
          </g>
        </g>
      </a>
    </g>
    <g id="y.node.3">
      <a target="_blank" xlink:type="simple" xlink:href="https://a-lighthouse.org/dissociated-consciousness" xlink:show="new">
        <g fill="rgb(251,246,245)" text-rendering="geometricPrecision" shape-rendering="geometricPrecision" transform="matrix(1,0,0,1,-40,15)" stroke="rgb(251,246,245)">
          <rect x="429" y="1260" width="137" rx="4" ry="4" height="80" stroke="none"/>
        </g>
        <g stroke-linecap="butt" transform="matrix(1,0,0,1,-40,15)" fill="rgb(201,68,39)" text-rendering="geometricPrecision" shape-rendering="geometricPrecision" stroke="rgb(201,68,39)" stroke-miterlimit="1.45">
          <rect x="429" y="1260" fill="none" width="137" rx="4" ry="4" height="80"/>
        </g>
        <g>
          <g stroke-linecap="butt" transform="matrix(1,0,0,1,-40,15) translate(457,1276)" fill="rgb(201,68,39)" text-rendering="geometricPrecision" font-family="'Dosis'" shape-rendering="geometricPrecision" stroke="rgb(201,68,39)" font-weight="bold" stroke-miterlimit="1.45">
            <text x="5" xml:space="preserve" y="13" clip-path="url(#clipPath5)" stroke="none">LIVING GHOST </text>
            <text x="75" xml:space="preserve" y="13" clip-path="url(#clipPath5)" font-weight="normal" stroke="none"> </text>
            <text x="8" xml:space="preserve" y="29" clip-path="url(#clipPath5)" font-weight="normal" stroke="none">DISSOCIATED</text>
            <text x="71" xml:space="preserve" y="29" clip-path="url(#clipPath5)" font-weight="normal" stroke="none"> </text>
            <text x="0" xml:space="preserve" y="45" clip-path="url(#clipPath5)" font-weight="normal" stroke="none">CONSCIOUSNESS</text>
          </g>
        </g>
      </a>
    </g>
    <g id="y.node.4">
      <a target="_blank" xlink:type="simple" xlink:href="https://a-lighthouse.org/metaconsciousness" xlink:show="new">
        <g fill="rgb(251,246,245)" text-rendering="geometricPrecision" shape-rendering="geometricPrecision" transform="matrix(1,0,0,1,-40,15)" stroke="rgb(251,246,245)">
          <rect x="242" y="1260" width="137" rx="4" ry="4" height="80" stroke="none"/>
        </g>
        <g stroke-linecap="butt" transform="matrix(1,0,0,1,-40,15)" fill="rgb(201,68,39)" text-rendering="geometricPrecision" shape-rendering="geometricPrecision" stroke="rgb(201,68,39)" stroke-miterlimit="1.45">
          <rect x="242" y="1260" fill="none" width="137" rx="4" ry="4" height="80"/>
        </g>
        <g>
          <g stroke-linecap="butt" transform="matrix(1,0,0,1,-40,15) translate(255,1284)" fill="rgb(201,68,39)" text-rendering="geometricPrecision" font-family="'Dosis'" shape-rendering="geometricPrecision" stroke="rgb(201,68,39)" font-weight="bold" stroke-miterlimit="1.45">
            <text x="0" xml:space="preserve" y="13" clip-path="url(#clipPath6)" stroke="none">MEASURED OBSERVER </text>
            <text x="111" xml:space="preserve" y="13" clip-path="url(#clipPath6)" font-weight="normal" stroke="none"> </text>
            <text x="2" xml:space="preserve" y="29" clip-path="url(#clipPath6)" font-weight="normal" stroke="none">METACONSCIOUSNESS</text>
          </g>
        </g>
      </a>
    </g>
    <g id="y.node.5">
      <a target="_blank" xlink:type="simple" xlink:href="https://a-lighthouse.org/self-centered-consciousness" xlink:show="new">
        <g fill="rgb(251,246,245)" text-rendering="geometricPrecision" shape-rendering="geometricPrecision" transform="matrix(1,0,0,1,-40,15)" stroke="rgb(251,246,245)">
          <rect x="55" y="1260" width="137" rx="4" ry="4" height="80" stroke="none"/>
        </g>
        <g stroke-linecap="butt" transform="matrix(1,0,0,1,-40,15)" fill="rgb(201,68,39)" text-rendering="geometricPrecision" shape-rendering="geometricPrecision" stroke="rgb(201,68,39)" stroke-miterlimit="1.45">
          <rect x="55" y="1260" fill="none" width="137" rx="4" ry="4" height="80"/>
        </g>
        <g>
          <g stroke-linecap="butt" transform="matrix(1,0,0,1,-40,15) translate(78,1276)" fill="rgb(201,68,39)" text-rendering="geometricPrecision" font-family="'Dosis'" shape-rendering="geometricPrecision" stroke="rgb(201,68,39)" font-weight="bold" stroke-miterlimit="1.45">
            <text x="0" xml:space="preserve" y="13" clip-path="url(#clipPath7)" stroke="none">MAIN CHARACTER </text>
            <text x="90" xml:space="preserve" y="13" clip-path="url(#clipPath7)" font-weight="normal" stroke="none"> </text>
            <text x="5" xml:space="preserve" y="29" clip-path="url(#clipPath7)" font-weight="normal" stroke="none">SELF-CENTERED</text>
            <text x="84" xml:space="preserve" y="29" clip-path="url(#clipPath7)" font-weight="normal" stroke="none"> </text>
            <text x="5" xml:space="preserve" y="45" clip-path="url(#clipPath7)" font-weight="normal" stroke="none">CONSCIOUSNESS</text>
          </g>
        </g>
      </a>
    </g>
    <g id="y.node.6">
      <a target="_blank" xlink:type="simple" xlink:href="https://a-lighthouse.org/shared-reality" xlink:show="new">
        <g fill="rgb(251,246,245)" text-rendering="geometricPrecision" shape-rendering="geometricPrecision" transform="matrix(1,0,0,1,-40,15)" stroke="rgb(251,246,245)">
          <rect x="803" y="1260" width="137" rx="4" ry="4" height="80" stroke="none"/>
        </g>
        <g stroke-linecap="butt" transform="matrix(1,0,0,1,-40,15)" fill="rgb(201,68,39)" text-rendering="geometricPrecision" shape-rendering="geometricPrecision" stroke="rgb(201,68,39)" stroke-miterlimit="1.45">
          <rect x="803" y="1260" fill="none" width="137" rx="4" ry="4" height="80"/>
        </g>
        <g>
          <g stroke-linecap="butt" transform="matrix(1,0,0,1,-40,15) translate(832,1284)" fill="rgb(201,68,39)" text-rendering="geometricPrecision" font-family="'Dosis'" shape-rendering="geometricPrecision" stroke="rgb(201,68,39)" font-weight="bold" stroke-miterlimit="1.45">
            <text x="2" xml:space="preserve" y="13" clip-path="url(#clipPath8)" stroke="none">OUTER WORLD </text>
            <text x="77" xml:space="preserve" y="13" clip-path="url(#clipPath8)" font-weight="normal" stroke="none"> </text>
            <text x="0" xml:space="preserve" y="29" clip-path="url(#clipPath8)" font-weight="normal" stroke="none">SHARED REALITY</text>
          </g>
        </g>
      </a>
    </g>
    <g id="y.node.7">
      <a target="_blank" xlink:type="simple" xlink:href="https://a-lighthouse.org/consciousness" xlink:show="new">
        <g fill="rgb(251,246,245)" text-rendering="geometricPrecision" shape-rendering="geometricPrecision" transform="matrix(1,0,0,1,-40,15)" stroke="rgb(251,246,245)">
          <rect x="242" y="1080" width="137" rx="4" ry="4" height="80" stroke="none"/>
        </g>
        <g stroke-linecap="butt" transform="matrix(1,0,0,1,-40,15)" fill="rgb(201,68,39)" text-rendering="geometricPrecision" shape-rendering="geometricPrecision" stroke="rgb(201,68,39)" stroke-miterlimit="1.45">
          <rect x="242" y="1080" fill="none" width="137" rx="4" ry="4" height="80"/>
        </g>
        <g>
          <g stroke-linecap="butt" transform="matrix(1,0,0,1,-40,15) translate(270,1104)" fill="rgb(201,68,39)" text-rendering="geometricPrecision" font-family="'Dosis'" shape-rendering="geometricPrecision" stroke="rgb(201,68,39)" font-weight="bold" stroke-miterlimit="1.45">
            <text x="23" xml:space="preserve" y="13" clip-path="url(#clipPath9)" stroke="none">SENSE </text>
            <text x="56" xml:space="preserve" y="13" clip-path="url(#clipPath9)" font-weight="normal" stroke="none"> </text>
            <text x="0" xml:space="preserve" y="29" clip-path="url(#clipPath9)" font-weight="normal" stroke="none">CONSCIOUSNESS</text>
          </g>
        </g>
      </a>
    </g>
    <g id="y.node.8">
      <a target="_blank" xlink:type="simple" xlink:href="https://a-lighthouse.org/private-reality" xlink:show="new">
        <g fill="rgb(251,246,245)" text-rendering="geometricPrecision" shape-rendering="geometricPrecision" transform="matrix(1,0,0,1,-40,15)" stroke="rgb(251,246,245)">
          <rect x="616" y="1260" width="137" rx="4" ry="4" height="80" stroke="none"/>
        </g>
        <g stroke-linecap="butt" transform="matrix(1,0,0,1,-40,15)" fill="rgb(201,68,39)" text-rendering="geometricPrecision" shape-rendering="geometricPrecision" stroke="rgb(201,68,39)" stroke-miterlimit="1.45">
          <rect x="616" y="1260" fill="none" width="137" rx="4" ry="4" height="80"/>
        </g>
        <g>
          <g stroke-linecap="butt" transform="matrix(1,0,0,1,-40,15) translate(644,1284)" fill="rgb(201,68,39)" text-rendering="geometricPrecision" font-family="'Dosis'" shape-rendering="geometricPrecision" stroke="rgb(201,68,39)" font-weight="bold" stroke-miterlimit="1.45">
            <text x="4" xml:space="preserve" y="13" clip-path="url(#clipPath9)" stroke="none">INNER WORLD </text>
            <text x="76" xml:space="preserve" y="13" clip-path="url(#clipPath9)" font-weight="normal" stroke="none"> </text>
            <text x="0" xml:space="preserve" y="29" clip-path="url(#clipPath9)" font-weight="normal" stroke="none">PRIVATE REALITY</text>
          </g>
        </g>
      </a>
    </g>
    <g id="y.node.9">
      <a target="_blank" xlink:type="simple" xlink:href="https://a-lighthouse.org/psychological-existence" xlink:show="new">
        <g fill="rgb(251,246,245)" text-rendering="geometricPrecision" shape-rendering="geometricPrecision" transform="matrix(1,0,0,1,-40,15)" stroke="rgb(251,246,245)">
          <rect x="1364" y="1260" width="137" rx="4" ry="4" height="80" stroke="none"/>
        </g>
        <g stroke-linecap="butt" transform="matrix(1,0,0,1,-40,15)" fill="rgb(201,68,39)" text-rendering="geometricPrecision" shape-rendering="geometricPrecision" stroke="rgb(201,68,39)" stroke-miterlimit="1.45">
          <rect x="1364" y="1260" fill="none" width="137" rx="4" ry="4" height="80"/>
        </g>
        <g>
          <g stroke-linecap="butt" transform="matrix(1,0,0,1,-40,15) translate(1391,1276)" fill="rgb(201,68,39)" text-rendering="geometricPrecision" font-family="'Dosis'" shape-rendering="geometricPrecision" stroke="rgb(201,68,39)" font-weight="bold" stroke-miterlimit="1.45">
            <text x="0" xml:space="preserve" y="13" clip-path="url(#clipPath10)" stroke="none">MENTAL WORLD </text>
            <text x="82" xml:space="preserve" y="13" clip-path="url(#clipPath10)" font-weight="normal" stroke="none"> </text>
            <text x="1" xml:space="preserve" y="29" clip-path="url(#clipPath10)" font-weight="normal" stroke="none">PSYCHOLOGICAL</text>
            <text x="80" xml:space="preserve" y="29" clip-path="url(#clipPath10)" font-weight="normal" stroke="none"> </text>
            <text x="15" xml:space="preserve" y="45" clip-path="url(#clipPath10)" font-weight="normal" stroke="none">EXISTENCE</text>
          </g>
        </g>
      </a>
    </g>
    <g id="y.node.10">
      <a target="_blank" xlink:type="simple" xlink:href="https://a-lighthouse.org/metaphysical-existence" xlink:show="new">
        <g fill="rgb(251,246,245)" text-rendering="geometricPrecision" shape-rendering="geometricPrecision" transform="matrix(1,0,0,1,-40,15)" stroke="rgb(251,246,245)">
          <rect x="1177" y="1260" width="137" rx="4" ry="4" height="80" stroke="none"/>
        </g>
        <g stroke-linecap="butt" transform="matrix(1,0,0,1,-40,15)" fill="rgb(201,68,39)" text-rendering="geometricPrecision" shape-rendering="geometricPrecision" stroke="rgb(201,68,39)" stroke-miterlimit="1.45">
          <rect x="1177" y="1260" fill="none" width="137" rx="4" ry="4" height="80"/>
        </g>
        <g>
          <g stroke-linecap="butt" transform="matrix(1,0,0,1,-40,15) translate(1199,1276)" fill="rgb(201,68,39)" text-rendering="geometricPrecision" font-family="'Dosis'" shape-rendering="geometricPrecision" stroke="rgb(201,68,39)" font-weight="bold" stroke-miterlimit="1.45">
            <text x="0" xml:space="preserve" y="13" clip-path="url(#clipPath11)" stroke="none">TRUE EXPERIENCE </text>
            <text x="92" xml:space="preserve" y="13" clip-path="url(#clipPath11)" font-weight="normal" stroke="none"> </text>
            <text x="10" xml:space="preserve" y="29" clip-path="url(#clipPath11)" font-weight="normal" stroke="none">METAPHYSICAL</text>
            <text x="82" xml:space="preserve" y="29" clip-path="url(#clipPath11)" font-weight="normal" stroke="none"> </text>
            <text x="20" xml:space="preserve" y="45" clip-path="url(#clipPath11)" font-weight="normal" stroke="none">EXISTENCE</text>
          </g>
        </g>
      </a>
    </g>
    <g id="y.node.11">
      <a target="_blank" xlink:type="simple" xlink:href="https://a-lighthouse.org/physical-existence" xlink:show="new">
        <g fill="rgb(251,246,245)" text-rendering="geometricPrecision" shape-rendering="geometricPrecision" transform="matrix(1,0,0,1,-40,15)" stroke="rgb(251,246,245)">
          <rect x="990" y="1260" width="137" rx="4" ry="4" height="80" stroke="none"/>
        </g>
        <g stroke-linecap="butt" transform="matrix(1,0,0,1,-40,15)" fill="rgb(201,68,39)" text-rendering="geometricPrecision" shape-rendering="geometricPrecision" stroke="rgb(201,68,39)" stroke-miterlimit="1.45">
          <rect x="990" y="1260" fill="none" width="137" rx="4" ry="4" height="80"/>
        </g>
        <g>
          <g stroke-linecap="butt" transform="matrix(1,0,0,1,-40,15) translate(1008,1284)" fill="rgb(201,68,39)" text-rendering="geometricPrecision" font-family="'Dosis'" shape-rendering="geometricPrecision" stroke="rgb(201,68,39)" font-weight="bold" stroke-miterlimit="1.45">
            <text x="4" xml:space="preserve" y="13" clip-path="url(#clipPath12)" stroke="none">MATERIAL WORLD </text>
            <text x="96" xml:space="preserve" y="13" clip-path="url(#clipPath12)" font-weight="normal" stroke="none"> </text>
            <text x="0" xml:space="preserve" y="29" clip-path="url(#clipPath12)" font-weight="normal" stroke="none">PHYSICAL EXISTENCE</text>
          </g>
        </g>
      </a>
    </g>
    <g id="y.node.12">
      <g fill="rgb(246,248,250)" text-rendering="geometricPrecision" shape-rendering="geometricPrecision" transform="matrix(1,0,0,1,-40,15)" stroke="rgb(246,248,250)">
        <rect x="709.5" y="720" width="137" rx="4" ry="4" height="80" stroke="none"/>
      </g>
      <g stroke-linecap="butt" transform="matrix(1,0,0,1,-40,15)" fill="rgb(60,83,119)" text-rendering="geometricPrecision" shape-rendering="geometricPrecision" stroke="rgb(60,83,119)" stroke-miterlimit="1.45">
        <rect x="709.5" y="720" fill="none" width="137" rx="4" ry="4" height="80"/>
      </g>
      <g>
        <g stroke-linecap="butt" transform="matrix(1,0,0,1,-40,15) translate(744,752)" fill="rgb(60,83,119)" text-rendering="geometricPrecision" font-family="'Dosis SemiBold'" shape-rendering="geometricPrecision" stroke="rgb(60,83,119)" stroke-miterlimit="1.45">
          <text x="0" xml:space="preserve" y="13" clip-path="url(#clipPath13)" stroke="none">POWER SHIFT</text>
        </g>
      </g>
    </g>
    <g id="y.node.13">
      <a target="_blank" xlink:type="simple" xlink:href="https://a-lighthouse.org/ooo-effect" xlink:show="new">
        <g fill="rgb(246,248,250)" text-rendering="geometricPrecision" shape-rendering="geometricPrecision" transform="matrix(1,0,0,1,-40,15)" stroke="rgb(246,248,250)">
          <rect x="709.5" y="540" width="137" rx="4" ry="4" height="80" stroke="none"/>
        </g>
        <g stroke-linecap="butt" transform="matrix(1,0,0,1,-40,15)" fill="rgb(60,83,119)" text-rendering="geometricPrecision" shape-rendering="geometricPrecision" stroke="rgb(60,83,119)" stroke-miterlimit="1.45">
          <rect x="709.5" y="540" fill="none" width="137" rx="4" ry="4" height="80"/>
        </g>
        <g>
          <g stroke-linecap="butt" transform="matrix(1,0,0,1,-40,15) translate(748,564)" fill="rgb(60,83,119)" text-rendering="geometricPrecision" font-family="'Dosis'" shape-rendering="geometricPrecision" stroke="rgb(60,83,119)" font-weight="bold" stroke-miterlimit="1.45">
            <text x="9" xml:space="preserve" y="13" clip-path="url(#clipPath14)" stroke="none">INSIGHT </text>
            <text x="50" xml:space="preserve" y="13" clip-path="url(#clipPath14)" font-weight="normal" stroke="none"> </text>
            <text x="0" xml:space="preserve" y="29" clip-path="url(#clipPath14)" font-weight="normal" stroke="none">OOO EFFECT</text>
          </g>
        </g>
      </a>
    </g>
    <g id="y.node.14">
      <a target="_blank" xlink:type="simple" xlink:href="https://a-lighthouse.org/sovereignty-of-good" xlink:show="new">
        <g fill="rgb(246,248,250)" text-rendering="geometricPrecision" shape-rendering="geometricPrecision" transform="matrix(1,0,0,1,-40,15)" stroke="rgb(246,248,250)">
          <rect x="709.5" y="360" width="137" rx="4" ry="4" height="80" stroke="none"/>
        </g>
        <g stroke-linecap="butt" transform="matrix(1,0,0,1,-40,15)" fill="rgb(60,83,119)" text-rendering="geometricPrecision" shape-rendering="geometricPrecision" stroke="rgb(60,83,119)" stroke-miterlimit="1.45">
          <rect x="709.5" y="360" fill="none" width="137" rx="4" ry="4" height="80"/>
        </g>
        <g>
          <g stroke-linecap="butt" transform="matrix(1,0,0,1,-40,15) translate(745,376)" fill="rgb(60,83,119)" text-rendering="geometricPrecision" font-family="'Dosis'" shape-rendering="geometricPrecision" stroke="rgb(60,83,119)" font-weight="bold" stroke-miterlimit="1.45">
            <text x="18" xml:space="preserve" y="13" clip-path="url(#clipPath15)" stroke="none">GOOD </text>
            <text x="48" xml:space="preserve" y="13" clip-path="url(#clipPath15)" font-weight="normal" stroke="none"> </text>
            <text x="0" xml:space="preserve" y="29" clip-path="url(#clipPath15)" font-weight="normal" stroke="none">SOVEREIGNTY</text>
            <text x="66" xml:space="preserve" y="29" clip-path="url(#clipPath15)" font-weight="normal" stroke="none"> </text>
            <text x="11" xml:space="preserve" y="45" clip-path="url(#clipPath15)" font-weight="normal" stroke="none">OF GOOD</text>
          </g>
        </g>
      </a>
    </g>
    <g id="y.node.15">
      <g fill="rgb(246,248,250)" text-rendering="geometricPrecision" shape-rendering="geometricPrecision" transform="matrix(1,0,0,1,-40,15)" stroke="rgb(246,248,250)">
        <rect x="709.5" y="180" width="137" rx="4" ry="4" height="80" stroke="none"/>
      </g>
      <g stroke-linecap="butt" transform="matrix(1,0,0,1,-40,15)" fill="rgb(60,83,119)" text-rendering="geometricPrecision" shape-rendering="geometricPrecision" stroke="rgb(60,83,119)" stroke-miterlimit="1.45">
        <rect x="709.5" y="180" fill="none" width="137" rx="4" ry="4" height="80"/>
      </g>
      <g>
        <g stroke-linecap="butt" transform="matrix(1,0,0,1,-40,15) translate(737,204)" fill="rgb(60,83,119)" text-rendering="geometricPrecision" font-family="'Dosis'" shape-rendering="geometricPrecision" stroke="rgb(60,83,119)" font-weight="bold" stroke-miterlimit="1.45">
          <text x="12" xml:space="preserve" y="13" clip-path="url(#clipPath16)" stroke="none">ELEVATION </text>
          <text x="69" xml:space="preserve" y="13" clip-path="url(#clipPath16)" font-weight="normal" stroke="none"> </text>
          <text x="0" xml:space="preserve" y="29" clip-path="url(#clipPath16)" font-weight="normal" stroke="none">TRANSCENDENCE</text>
        </g>
      </g>
    </g>
    <g id="y.node.16">
      <g fill="rgb(246,248,250)" text-rendering="geometricPrecision" shape-rendering="geometricPrecision" transform="matrix(1,0,0,1,-40,15)" stroke="rgb(246,248,250)">
        <rect x="709.5" y="0" width="137" rx="4" ry="4" height="80" stroke="none"/>
      </g>
      <g stroke-linecap="butt" transform="matrix(1,0,0,1,-40,15)" fill="rgb(60,83,119)" text-rendering="geometricPrecision" shape-rendering="geometricPrecision" stroke="rgb(60,83,119)" stroke-miterlimit="1.45">
        <rect x="709.5" y="0" fill="none" width="137" rx="4" ry="4" height="80"/>
      </g>
      <g>
        <g stroke-linecap="butt" transform="matrix(1,0,0,1,-40,15) translate(741,24)" fill="rgb(60,83,119)" text-rendering="geometricPrecision" font-family="'Dosis'" shape-rendering="geometricPrecision" stroke="rgb(60,83,119)" font-weight="bold" stroke-miterlimit="1.45">
          <text x="3" xml:space="preserve" y="13" clip-path="url(#clipPath17)" stroke="none">EMPOWERED </text>
          <text x="70" xml:space="preserve" y="13" clip-path="url(#clipPath17)" font-weight="normal" stroke="none"> </text>
          <text x="0" xml:space="preserve" y="29" clip-path="url(#clipPath17)" font-weight="normal" stroke="none">POWERED SELF</text>
        </g>
      </g>
    </g>
    <g id="y.edge.0">
      <g stroke-linecap="butt" transform="matrix(1,0,0,1,-40,15)" fill="rgb(201,68,39)" text-rendering="geometricPrecision" shape-rendering="geometricPrecision" stroke="rgb(201,68,39)" stroke-miterlimit="1.45">
        <path fill="none" d="M823.6667 980 L824.8768 981.4108 L828.4041 982.749 L841.7924 985.2812 L889.5781 990.2812 L957.1374 996.1719 L1034.5834 1004.125 L1073.9242 1009.2412 L1112.0293 1015.3125 L1147.6627 1022.4854 L1179.5885 1030.9062 L1206.571 1040.7217 L1217.8224 1046.1981 L1227.3744 1052.0781 L1235.0726 1058.38 L1240.7626 1065.1221 L1244.1713 1072.0803 L1244.1869 1072.1791"/>
        <path d="M1245.5118 1080.0686 L1248.4554 1067.4062 L1244.0214 1071.1929 L1238.5935 1069.0624 Z" stroke="none"/>
      </g>
    </g>
    <g id="y.edge.2">
      <g stroke-linecap="butt" transform="matrix(1,0,0,1,-40,15)" fill="rgb(201,68,39)" text-rendering="geometricPrecision" shape-rendering="geometricPrecision" stroke="rgb(201,68,39)" stroke-miterlimit="1.45">
        <path fill="none" d="M778 980 L778 1071.9512"/>
        <path d="M778 1079.9512 L783 1067.9512 L778 1070.9512 L773 1067.9512 Z" stroke="none"/>
      </g>
    </g>
    <g id="y.edge.6">
      <g stroke-linecap="butt" transform="matrix(1,0,0,1,-40,15)" fill="rgb(201,68,39)" text-rendering="geometricPrecision" shape-rendering="geometricPrecision" stroke="rgb(201,68,39)" stroke-miterlimit="1.45">
        <path fill="none" d="M812.25 1160 L812.9154 1162.749 L814.7959 1165.2812 L821.5078 1170.2812 L830.9971 1176.1719 L841.875 1184.125 L852.7529 1195.3125 L857.7579 1202.4854 L862.2422 1210.9062 L866.0321 1220.7217 L868.9541 1232.0781 L870.8346 1245.1221 L871.1413 1251.9789"/>
        <path d="M871.4987 1259.9709 L875.9576 1247.7595 L871.0966 1250.98 L865.9676 1248.2063 Z" stroke="none"/>
      </g>
    </g>
    <g id="y.edge.1">
      <g stroke-linecap="butt" transform="matrix(1,0,0,1,-40,15)" fill="rgb(201,68,39)" text-rendering="geometricPrecision" shape-rendering="geometricPrecision" stroke="rgb(201,68,39)" stroke-miterlimit="1.45">
        <path fill="none" d="M732.3333 980 L731.1232 981.4108 L727.5959 982.749 L714.2076 985.2812 L666.4219 990.2812 L598.8626 996.1719 L521.4166 1004.125 L482.0757 1009.2412 L443.9707 1015.3125 L408.3373 1022.4854 L376.4115 1030.9062 L349.429 1040.7217 L338.1777 1046.1981 L328.6256 1052.0781 L320.9274 1058.38 L315.2374 1065.1221 L311.8288 1072.0803 L311.8132 1072.1791"/>
        <path d="M310.4882 1080.0686 L317.4067 1069.0625 L311.9789 1071.1929 L307.5448 1067.4062 Z" stroke="none"/>
      </g>
    </g>
    <g id="y.edge.3">
      <g stroke-linecap="butt" transform="matrix(1,0,0,1,-40,15)" fill="rgb(201,68,39)" text-rendering="geometricPrecision" shape-rendering="geometricPrecision" stroke="rgb(201,68,39)" stroke-miterlimit="1.45">
        <path fill="none" d="M356.1667 1160 L357.7539 1162.749 L362.2396 1165.2812 L378.25 1170.2812 L400.8854 1176.1719 L426.8333 1184.125 L440.0143 1189.2412 L452.7812 1195.3125 L464.7201 1202.4854 L475.4167 1210.9062 L484.457 1220.7217 L491.4271 1232.0781 L495.9128 1245.1221 L496.6482 1252.0161"/>
        <path d="M497.4969 1259.9709 L501.1957 1247.5083 L496.5421 1251.0217 L491.2521 1248.5691 Z" stroke="none"/>
      </g>
    </g>
    <g id="y.edge.4">
      <g stroke-linecap="butt" transform="matrix(1,0,0,1,-40,15)" fill="rgb(201,68,39)" text-rendering="geometricPrecision" shape-rendering="geometricPrecision" stroke="rgb(201,68,39)" stroke-miterlimit="1.45">
        <path fill="none" d="M310.5 1160 L310.5 1251.9512"/>
        <path d="M310.5 1259.9512 L315.5 1247.9512 L310.5 1250.9512 L305.5 1247.9512 Z" stroke="none"/>
      </g>
    </g>
    <g id="y.edge.5">
      <g stroke-linecap="butt" transform="matrix(1,0,0,1,-40,15)" fill="rgb(201,68,39)" text-rendering="geometricPrecision" shape-rendering="geometricPrecision" stroke="rgb(201,68,39)" stroke-miterlimit="1.45">
        <path fill="none" d="M264.8333 1160 L263.2461 1162.749 L258.7604 1165.2812 L242.75 1170.2812 L220.1146 1176.1719 L194.1667 1184.125 L180.9857 1189.2412 L168.2188 1195.3125 L156.28 1202.4854 L145.5833 1210.9062 L136.543 1220.7217 L129.5729 1232.0781 L125.0872 1245.1221 L124.3518 1252.0161"/>
        <path d="M123.5031 1259.9709 L129.7479 1248.5691 L124.4578 1251.0217 L119.8043 1247.5083 Z" stroke="none"/>
      </g>
    </g>
    <g id="y.edge.7">
      <g stroke-linecap="butt" transform="matrix(1,0,0,1,-40,15)" fill="rgb(201,68,39)" text-rendering="geometricPrecision" shape-rendering="geometricPrecision" stroke="rgb(201,68,39)" stroke-miterlimit="1.45">
        <path fill="none" d="M743.75 1160 L743.0846 1162.749 L741.2041 1165.2812 L734.4922 1170.2812 L725.0029 1176.1719 L714.125 1184.125 L703.2471 1195.3125 L698.2421 1202.4854 L693.7578 1210.9062 L689.9679 1220.7217 L687.0459 1232.0781 L685.1654 1245.1221 L684.8587 1251.9789"/>
        <path d="M684.5013 1259.9709 L690.0324 1248.2063 L684.9034 1250.98 L680.0424 1247.7595 Z" stroke="none"/>
      </g>
    </g>
    <g id="y.edge.8">
      <g stroke-linecap="butt" transform="matrix(1,0,0,1,-40,15)" fill="rgb(201,68,39)" text-rendering="geometricPrecision" shape-rendering="geometricPrecision" stroke="rgb(201,68,39)" stroke-miterlimit="1.45">
        <path fill="none" d="M1291.1666 1160 L1292.7539 1162.749 L1297.2395 1165.2812 L1313.25 1170.2812 L1335.8854 1176.1719 L1361.8333 1184.125 L1375.0143 1189.2412 L1387.7812 1195.3125 L1399.7201 1202.4854 L1410.4166 1210.9062 L1419.457 1220.7217 L1426.4271 1232.0781 L1430.9127 1245.1221 L1431.6482 1252.0161"/>
        <path d="M1432.4969 1259.9709 L1436.1956 1247.5082 L1431.5421 1251.0217 L1426.2521 1248.5691 Z" stroke="none"/>
      </g>
    </g>
    <g id="y.edge.9">
      <g stroke-linecap="butt" transform="matrix(1,0,0,1,-40,15)" fill="rgb(201,68,39)" text-rendering="geometricPrecision" shape-rendering="geometricPrecision" stroke="rgb(201,68,39)" stroke-miterlimit="1.45">
        <path fill="none" d="M1245.5 1160 L1245.5 1251.9512"/>
        <path d="M1245.5 1259.9512 L1250.5 1247.9512 L1245.5 1250.9512 L1240.5 1247.9512 Z" stroke="none"/>
      </g>
    </g>
    <g id="y.edge.10">
      <g stroke-linecap="butt" transform="matrix(1,0,0,1,-40,15)" fill="rgb(201,68,39)" text-rendering="geometricPrecision" shape-rendering="geometricPrecision" stroke="rgb(201,68,39)" stroke-miterlimit="1.45">
        <path fill="none" d="M1199.8334 1160 L1198.2461 1162.749 L1193.7605 1165.2812 L1177.75 1170.2812 L1155.1146 1176.1719 L1129.1667 1184.125 L1115.9857 1189.2412 L1103.2188 1195.3125 L1091.2799 1202.4854 L1080.5834 1210.9062 L1071.543 1220.7217 L1064.5729 1232.0781 L1060.0873 1245.1221 L1059.3518 1252.0161"/>
        <path d="M1058.5031 1259.9709 L1064.7479 1248.5691 L1059.4579 1251.0217 L1054.8044 1247.5082 Z" stroke="none"/>
      </g>
    </g>
    <g id="y.edge.15">
      <g stroke-linecap="butt" transform="matrix(1,0,0,1,-40,15)" fill="rgb(201,68,39)" text-rendering="geometricPrecision" shape-rendering="geometricPrecision" stroke="rgb(201,68,39)" stroke-miterlimit="1.45">
        <path fill="none" d="M778 899.9512 L778 808"/>
        <path d="M778 800 L773 812 L778 809 L783 812 Z" stroke="none"/>
      </g>
    </g>
    <g id="y.edge.11">
      <g stroke-linecap="butt" transform="matrix(1,0,0,1,-40,15)" fill="rgb(60,83,119)" text-rendering="geometricPrecision" shape-rendering="geometricPrecision" stroke="rgb(60,83,119)" stroke-miterlimit="1.45">
        <path fill="none" d="M778 719.9512 L778 628"/>
        <path d="M778 620 L773 632 L778 629 L783 632 Z" stroke="none"/>
      </g>
    </g>
    <g id="y.edge.12">
      <g stroke-linecap="butt" transform="matrix(1,0,0,1,-40,15)" fill="rgb(60,83,119)" text-rendering="geometricPrecision" shape-rendering="geometricPrecision" stroke="rgb(60,83,119)" stroke-miterlimit="1.45">
        <path fill="none" d="M778 539.9512 L778 448"/>
        <path d="M778 440 L773 452 L778 449 L783 452 Z" stroke="none"/>
      </g>
    </g>
    <g id="y.edge.13">
      <g stroke-linecap="butt" transform="matrix(1,0,0,1,-40,15)" fill="rgb(60,83,119)" text-rendering="geometricPrecision" shape-rendering="geometricPrecision" stroke="rgb(60,83,119)" stroke-miterlimit="1.45">
        <path fill="none" d="M778 359.9512 L778 268"/>
        <path d="M778 260 L773 272 L778 269 L783 272 Z" stroke="none"/>
      </g>
    </g>
    <g id="y.edge.14">
      <g stroke-linecap="butt" transform="matrix(1,0,0,1,-40,15)" fill="rgb(60,83,119)" text-rendering="geometricPrecision" shape-rendering="geometricPrecision" stroke="rgb(60,83,119)" stroke-miterlimit="1.45">
        <path fill="none" d="M778 179.9512 L778 88"/>
        <path d="M778 80 L773 92 L778 89 L783 92 Z" stroke="none"/>
      </g>
    </g>
  </g>
    <!-- Mobile Directional Navigation Overlay -->
  <g id="directional-controls" style="cursor: pointer; opacity: 0.85;">
    <rect x="10" y="10" width="105" height="105" rx="12" fill="#222222" opacity="0.65"/>

    <g onclick="moveDiagram('up')" transform="translate(47.5, 15)">
      <rect width="30" height="30" rx="6" fill="#ffffff" opacity="0.9"/>
      <text x="15" y="21" font-size="18" font-weight="bold" text-anchor="middle" fill="#000000">▲</text>
    </g>

    <g onclick="moveDiagram('down')" transform="translate(47.5, 80)">
      <rect width="30" height="30" rx="6" fill="#ffffff" opacity="0.9"/>
      <text x="15" y="21" font-size="18" font-weight="bold" text-anchor="middle" fill="#000000">▼</text>
    </g>

    <g onclick="moveDiagram('left')" transform="translate(15, 47.5)">
      <rect width="30" height="30" rx="6" fill="#ffffff" opacity="0.9"/>
      <text x="15" y="21" font-size="18" font-weight="bold" text-anchor="middle" fill="#000000">◄</text>
    </g>

    <g onclick="moveDiagram('right')" transform="translate(80, 47.5)">
      <rect width="30" height="30" rx="6" fill="#ffffff" opacity="0.9"/>
      <text x="15" y="21" font-size="18" font-weight="bold" text-anchor="middle" fill="#000000">►</text>
    </g>
  </g>
</svg>
